<svg width="79" height="80" viewBox="0 0 79 80" fill="none" xmlns="http://www.w3.org/2000/svg">
<path d="M77.7534 39.6881C77.7534 61.3379 60.453 78.8763 39.1267 78.8763C17.8005 78.8763 0.5 61.3379 0.5 39.6881C0.5 18.0384 17.8005 0.5 39.1267 0.5C60.453 0.5 77.7534 18.0384 77.7534 39.6881Z" fill="#2F2E41" stroke="black"/>
<path d="M39.1545 40.5332C31.9796 40.5332 26.1423 35.0516 26.1423 28.3136C26.1423 21.5758 31.9796 16.0942 39.1545 16.0942C46.3295 16.0942 52.1668 21.5758 52.1668 28.3136C52.1668 35.0516 46.3295 40.5332 39.1545 40.5332ZM39.1545 19.1818C33.9054 19.1818 29.6349 23.2783 29.6349 28.3136C29.6349 33.349 33.9054 37.4457 39.1545 37.4457C44.4037 37.4457 48.6742 33.349 48.6742 28.3136C48.6742 23.2783 44.4037 19.1818 39.1545 19.1818Z" fill="#00BFA6"/>
<path d="M39.1833 40.2418C31.9925 40.2418 26.1423 34.5801 26.1423 27.6208C26.1423 20.6617 31.9925 15 39.1833 15C46.3741 15 52.2244 20.6617 52.2244 27.6208C52.2244 34.5801 46.3741 40.2418 39.1833 40.2418ZM39.1833 18.189C33.9225 18.189 29.6426 22.42 29.6426 27.6208C29.6426 32.8215 33.9225 37.0528 39.1833 37.0528C44.4441 37.0528 48.724 32.8215 48.724 27.6208C48.724 22.42 44.4441 18.189 39.1833 18.189Z" fill="#00BFA6"/>
<path d="M51.8494 65.0001H27.1506C24.9726 64.9979 22.8845 64.2087 21.3444 62.8056C19.8042 61.4025 18.9379 59.5001 18.9355 57.5158V35.4441C18.9372 34.0856 19.5303 32.7832 20.5846 31.8226C21.639 30.862 23.0686 30.3216 24.5598 30.3201H54.4402C55.9314 30.3216 57.361 30.862 58.4154 31.8226C59.4697 32.7832 60.0628 34.0856 60.0645 35.4441V57.5158C60.0621 59.5001 59.1958 61.4025 57.6557 62.8056C56.1155 64.2087 54.0274 64.9979 51.8494 65.0001V65.0001Z" fill="white"/>
<path d="M44.1761 44.9215C44.1768 44.142 43.9494 43.3765 43.5173 42.7038C43.0852 42.031 42.4641 41.4753 41.7179 41.094C40.9718 40.7126 40.1275 40.5194 39.2721 40.5341C38.4167 40.5489 37.581 40.7711 36.8512 41.1779C36.1214 41.5847 35.5238 42.1614 35.12 42.8485C34.7162 43.5357 34.5207 44.3085 34.5538 45.0874C34.5868 45.8663 34.8471 46.6231 35.3079 47.2798C35.7687 47.9366 36.4133 48.4695 37.1754 48.8238V55.6842H41.5509V48.8238C42.3408 48.4571 43.004 47.8985 43.4673 47.2098C43.9306 46.5212 44.1759 45.7292 44.1761 44.9215V44.9215Z" fill="#2F2E41"/>
<path d="M44.1761 44.9215C44.1768 44.142 43.9494 43.3765 43.5173 42.7038C43.0852 42.031 42.4641 41.4753 41.7179 41.094C40.9718 40.7126 40.1275 40.5194 39.2721 40.5341C38.4167 40.5489 37.581 40.7711 36.8512 41.1779C36.1214 41.5847 35.5238 42.1614 35.12 42.8485C34.7162 43.5357 34.5207 44.3085 34.5538 45.0874C34.5868 45.8663 34.8471 46.6231 35.3079 47.2798C35.7687 47.9366 36.4133 48.4695 37.1754 48.8238V55.6842H41.5509V48.8238C42.3408 48.4571 43.004 47.8985 43.4673 47.2098C43.9306 46.5212 44.1759 45.7292 44.1761 44.9215V44.9215Z" fill="#2F2E41"/>
</svg>
