<svg width="256" height="256" viewBox="0 0 256 256" fill="none" xmlns="http://www.w3.org/2000/svg">
<path d="M108.488 248.444C116.212 248.444 122.475 242.502 122.475 235.173C122.475 227.843 116.212 221.902 108.488 221.902C100.763 221.902 94.5004 227.843 94.5004 235.173C94.5004 242.502 100.763 248.444 108.488 248.444Z" fill="#EE24FF"/>
<path d="M134.948 7.39175C117.691 5.54483 100.368 10.2778 86.7891 20.5496C73.2102 30.8213 64.488 45.7903 62.5414 62.1636C58.4878 96.2592 77.4198 170.299 111.937 200.948C128.189 142.227 185.14 107.396 192.676 76.0913C200.728 42.6407 170.884 11.2378 134.948 7.39175Z" fill="#EE24FF"/>
<path d="M128.209 81.2457C140.003 81.2457 149.564 72.1742 149.564 60.9839C149.564 49.7937 140.003 40.7222 128.209 40.7222C116.415 40.7222 106.853 49.7937 106.853 60.9839C106.853 72.1742 116.415 81.2457 128.209 81.2457Z" fill="white"/>
</svg>
